<svg xmlns="http://www.w3.org/2000/svg" width="232.955" height="232.957" viewBox="0 0 232.955 232.957">
  <g id="_404" data-name="404" transform="translate(0 0.001)">
    <g id="_031---Gas-Leak" data-name="031---Gas-Leak" transform="translate(0 -0.001)">
      <path id="Shape" d="M221.307,42.648h-66a3.883,3.883,0,0,0-3.37,1.941L137.591,69.682a7.726,7.726,0,0,0,.283,8.153l4.659,6.989L132.008,95.4V86.964a7.711,7.711,0,0,0-2.275-5.49l-8.414-8.414,14.059-24.588a3.883,3.883,0,0,0-3.37-5.824H77.652A11.648,11.648,0,0,0,66,31h-23.3A11.648,11.648,0,0,0,31.061,42.648H11.648A11.648,11.648,0,0,0,0,54.3v69.886A11.648,11.648,0,0,0,11.648,135.83H31.061a11.648,11.648,0,0,0,11.648,11.648H66A11.648,11.648,0,0,0,77.652,135.83H221.307a11.648,11.648,0,0,0,11.648-11.648V54.3a11.648,11.648,0,0,0-11.648-11.648ZM11.648,128.065a3.883,3.883,0,0,1-3.883-3.883V54.3a3.883,3.883,0,0,1,3.883-3.883H31.061v77.652Zm58.239,7.765A3.883,3.883,0,0,1,66,139.712h-23.3a3.883,3.883,0,0,1-3.883-3.883V42.648a3.883,3.883,0,0,1,3.883-3.883H66a3.883,3.883,0,0,1,3.883,3.883Zm155.3-11.648a3.883,3.883,0,0,1-3.883,3.883H77.652V50.413h47.666l-10.739,18.8a7.765,7.765,0,0,0,1.25,9.341l8.414,8.414V95.4a7.765,7.765,0,0,0,13.255,5.49l10.533-10.533a7.788,7.788,0,0,0,.971-9.8l-4.659-6.989,13.212-23.152h63.752A3.883,3.883,0,0,1,225.19,54.3Z" transform="translate(0 85.479)" fill="#29b285"/>
      <path id="Shape-2" data-name="Shape" d="M159.542,47.592A19.436,19.436,0,0,0,140.129,28.18a18.842,18.842,0,0,0-5.047.7,23.051,23.051,0,0,0-22.131-16.229,22.325,22.325,0,0,0-6.55.986,23.156,23.156,0,0,0-41.256,0,22.325,22.325,0,0,0-6.55-.986A23.051,23.051,0,0,0,36.464,28.878a18.842,18.842,0,0,0-5.047-.7A19.386,19.386,0,0,0,20.211,63.406a14.832,14.832,0,0,0-.443,3.6,15.53,15.53,0,0,0,21.84,14.2A23.117,23.117,0,0,0,62.477,94.183a22.383,22.383,0,0,0,6.989-1.134,19.153,19.153,0,0,0,13.146,8.615c1.534,3.824,5.657,8.049,14.808,8.049,7.144,0,7.722,3.327,7.765,3.883v7.765a3.883,3.883,0,1,0,7.765,0v-7.684c.058-.718.7-3.964,7.765-3.964,20.613,0,31.061-14.366,31.061-42.708a14.831,14.831,0,0,0-.443-3.6,19.448,19.448,0,0,0,8.208-15.814Zm-38.826,54.356a17.188,17.188,0,0,0-11.648,3.63,17.188,17.188,0,0,0-11.648-3.63,11.955,11.955,0,0,1-5.471-1.037,19.18,19.18,0,0,0,10.095-7.862,22.383,22.383,0,0,0,7.024,1.134A23.117,23.117,0,0,0,129.937,81.2a15.325,15.325,0,0,0,12.875-.175C138.879,101.863,126.078,101.949,120.716,101.949Zm24.227-43.784a3.883,3.883,0,0,0-1.836,5.311,7.633,7.633,0,0,1,.9,3.529,7.765,7.765,0,0,1-7.765,7.765,7.688,7.688,0,0,1-5.517-2.33,3.883,3.883,0,0,0-6.55,1.871,15.325,15.325,0,0,1-22.162,10.3,3.883,3.883,0,0,0-5.4,2.058,11.586,11.586,0,0,1-21.68,0,3.883,3.883,0,0,0-5.4-2.058,15.325,15.325,0,0,1-22.162-10.3,3.883,3.883,0,0,0-6.55-1.871,7.688,7.688,0,0,1-5.517,2.33,7.765,7.765,0,0,1-7.765-7.765,7.633,7.633,0,0,1,.9-3.529A3.883,3.883,0,0,0,26.6,58.165a11.628,11.628,0,0,1,4.814-22.22,11.457,11.457,0,0,1,5.936,1.693,3.883,3.883,0,0,0,5.863-3,15.3,15.3,0,0,1,22.321-12.5A3.883,3.883,0,0,0,71,19.809a15.406,15.406,0,0,1,29.546,0,3.883,3.883,0,0,0,5.463,2.33,15.3,15.3,0,0,1,22.321,12.5,3.883,3.883,0,0,0,5.863,3,11.457,11.457,0,0,1,5.936-1.693,11.628,11.628,0,0,1,4.814,22.22Z" transform="translate(34.587 -0.999)" fill="#29b285"/>
    </g>
  </g>
</svg>
