<svg id="download-doc" xmlns="http://www.w3.org/2000/svg" width="20.216" height="23.2" viewBox="0 0 20.216 23.2">
  <path id="Path_1218" data-name="Path 1218" d="M48.422,7.2A2.521,2.521,0,0,0,45.8,9.576V27.053a2.521,2.521,0,0,0,2.622,2.376h13.9a2.521,2.521,0,0,0,2.622-2.376V12.08L60.18,7.2Z" transform="translate(-45.264 -6.74)" fill="#f4f4f4"/>
  <path id="Path_1219" data-name="Path 1219" d="M249.8,12.08h4.765L249.8,7.2Z" transform="translate(-234.884 -6.74)" fill="#c6c6c6"/>
  <path id="Path_1220" data-name="Path 1220" d="M119.9,133.6h-5.583v3.679H112.2l4.906,4.8,4.906-4.8H119.9Z" transform="translate(-106.984 -125.066)" fill="#29b285"/>
  <g id="Group_1091" data-name="Group 1091">
    <path id="Path_1221" data-name="Path 1221" d="M58.332,5.11c-.028-.026-.028-.051-.056-.077L53.482.153h0C53.454.128,53.4.1,53.369.077c-.028,0-.028-.026-.056-.026a.564.564,0,0,0-.2-.051H41.358A3.016,3.016,0,0,0,38.2,2.862V20.338A3.016,3.016,0,0,0,41.358,23.2h13.9a3.016,3.016,0,0,0,3.158-2.862v-15c0-.051-.028-.128-.028-.179C58.36,5.136,58.36,5.11,58.332,5.11Zm-4.709-3.4,3.1,3.143h-3.1Zm3.75,18.6A1.991,1.991,0,0,1,55.287,22.2H41.358a1.991,1.991,0,0,1-2.086-1.891V2.836A1.991,1.991,0,0,1,41.358.945H52.58V5.34a.512.512,0,0,0,.536.485h4.258Z" transform="translate(-38.2 0)" fill="#10664d"/>
    <path id="Path_1222" data-name="Path 1222" d="M115.064,129.679h-1.579v-3.194a.512.512,0,0,0-.536-.485h-5.583a.513.513,0,0,0-.536.485V129.7h-1.579a.527.527,0,0,0-.479.281.431.431,0,0,0,.085.511l4.906,4.8a.538.538,0,0,0,.395.153.586.586,0,0,0,.395-.153l4.906-4.8a.431.431,0,0,0,.085-.511A.55.55,0,0,0,115.064,129.679Zm-4.906,4.6-3.694-3.628h.9a.513.513,0,0,0,.536-.485v-3.219h4.54v3.219a.512.512,0,0,0,.536.485h.9Z" transform="translate(-100.036 -117.952)" fill="#10664d"/>
  </g>
</svg>
