<svg id="Warstwa_1" data-name="Warstwa 1" xmlns="http://www.w3.org/2000/svg" viewBox="0 0 1342.88 493.94"><defs><style>.cls-1{fill:#10664d;}</style></defs><title>Logo-pack</title><path class="cls-1" d="M248.58,238.48V266.3H301.4l-.59,2.93a44,44,0,0,1-16.93,26.71c-8.95,6.89-19.78,10.36-32.16,10.36a56.76,56.76,0,0,1-22.25-4.39,54.67,54.67,0,0,1-18-12.1,55.45,55.45,0,0,1-11.83-18.24,63.62,63.62,0,0,1-.13-45.49,55.7,55.7,0,0,1,11.58-18.14,54.73,54.73,0,0,1,39.67-16.49,59.44,59.44,0,0,1,26.19,5.9,65.34,65.34,0,0,1,21.36,16.82l22.48-20.68a83.17,83.17,0,0,0-30.56-23.11,94.11,94.11,0,0,0-39.47-8.44,91.1,91.1,0,0,0-34.91,6.74,87.8,87.8,0,0,0-28.28,18.42A85.76,85.76,0,0,0,162,248.83a83.91,83.91,0,0,0,7,34.19,86,86,0,0,0,47.18,46,91.76,91.76,0,0,0,35.12,6.74,85.3,85.3,0,0,0,33.71-6.64,79.83,79.83,0,0,0,44.4-45.49,92.38,92.38,0,0,0,6.38-34.53v-10.6Z"/><path class="cls-1" d="M441.56,224H472V332H441.56V318c-11,15.71-25.43,17.45-33.16,17.45-33.16,0-55.1-25.93-55.1-57.59,0-31.92,21.69-57.35,53.6-57.35,8.23,0,24.44,1.5,34.66,17.45Zm-56.85,53.86c0,17.2,12.47,30.67,29.92,30.67s29.92-13.47,29.92-30.67-12.46-30.42-29.92-30.42S384.71,260.68,384.71,277.89Z"/><path class="cls-1" d="M542.91,306.06H600V332H489.56l61.33-82H499V224H604.25Z"/><path class="cls-1" d="M719.51,235.75c10.73,9.72,18.21,24.68,18.21,42.38a56.68,56.68,0,0,1-18.21,42.14c-9.22,8.48-23.18,15.21-43.63,15.21s-34.41-6.73-43.63-15.21a56.71,56.71,0,0,1-18.2-42.14c0-17.7,7.48-32.66,18.2-42.38,9.22-8.48,23.19-15.21,43.63-15.21S710.29,227.27,719.51,235.75ZM706.3,278.13c0-16.95-13-30.66-30.42-30.66s-30.42,13.71-30.42,30.66a30.42,30.42,0,1,0,60.84,0Z"/><path class="cls-1" d="M758.08,224H788.5v12.22c11.47-14.46,25.68-15.71,32.16-15.71,22.69,0,31.42,14.21,34.16,19.7,5.24-8.48,16-19.7,34.66-19.7,16.7,0,24.93,7.73,29.17,13.21,7,9.23,7.48,18.45,7.48,30.42V332H895.71V273.15c0-12.72-2.74-18.45-5-21.19-4-5-9.48-5.49-12.47-5.49-8.23,0-13.46,3.74-16.71,9.48-4,6.48-4.23,15.2-4.23,20.94V332H826.9V273.15c0-12.72-2.75-18.45-5-21.19-4-5-9.47-5.49-12.47-5.49-8.22,0-13.46,3.74-16.7,9.48-4,6.48-4.24,15.2-4.24,20.94V332H758.08Z"/><path class="cls-1" d="M1058.82,301.82c-3.24,8-15.46,33.66-53.1,33.66-17.46,0-30.67-5-41.39-15.21-12-11.22-17-25.18-17-42.14,0-21.44,8.73-34.65,16.46-42.38,12.71-12.46,27.67-15.21,40.64-15.21,21.94,0,34.65,8.73,42.13,17.7,11.47,13.72,13,30.67,13,42.39v2.49H978.79c0,6.49,1.74,13.47,5.23,18.2,3.24,4.49,10,10.23,21.7,10.23,11.46,0,20.19-5.49,25.18-14.22Zm-27.92-38.14c-2.5-14.72-14.46-21.7-25.68-21.7a25.42,25.42,0,0,0-25.44,21.7Z"/><path class="cls-1" d="M1117.57,250v82h-30.42V250h-12V224h12v-36.9h30.42V224h21V250Z"/></svg>