<svg xmlns="http://www.w3.org/2000/svg" width="167.871" height="29.88" viewBox="0 0 167.871 29.88">
  <g id="logo" transform="translate(-36 -27.923)">
    <path id="Path_192" data-name="Path 192" d="M176.881,175.1v4.782h9.08l-.1.5a7.563,7.563,0,0,1-2.91,4.591,8.836,8.836,0,0,1-5.528,1.781A9.757,9.757,0,0,1,173.6,186a9.4,9.4,0,0,1-3.094-2.08,9.532,9.532,0,0,1-2.034-3.135,10.936,10.936,0,0,1-.022-7.82,9.575,9.575,0,0,1,1.991-3.118,9.408,9.408,0,0,1,6.819-2.835,10.218,10.218,0,0,1,4.5,1.014,11.232,11.232,0,0,1,3.672,2.891l3.864-3.555a14.3,14.3,0,0,0-5.253-3.973,16.177,16.177,0,0,0-6.785-1.451,15.66,15.66,0,0,0-6,1.159,15.092,15.092,0,0,0-4.861,3.166,14.742,14.742,0,0,0-4.4,10.611,14.424,14.424,0,0,0,1.2,5.877,14.783,14.783,0,0,0,8.11,7.907,15.773,15.773,0,0,0,6.037,1.159,14.663,14.663,0,0,0,5.795-1.141,13.723,13.723,0,0,0,7.632-7.82,15.88,15.88,0,0,0,1.1-5.936V175.1Z" transform="translate(-125.998 -134.016)" fill="#10664d"/>
    <path id="Path_193" data-name="Path 193" d="M368.472,221.11H373.7v18.565h-5.233v-2.407a6.659,6.659,0,0,1-5.7,3c-5.7,0-9.472-4.457-9.472-9.9,0-5.487,3.728-9.858,9.214-9.858a6.724,6.724,0,0,1,5.958,3Zm-9.772,9.258a5.232,5.232,0,1,1,0,.005Z" transform="translate(-284.416 -182.519)" fill="#10664d"/>
    <path id="Path_194" data-name="Path 194" d="M498.731,238.106h9.814v4.459H489.56l10.542-14.1h-8.92V224h18.092Z" transform="translate(-397.253 -185.409)" fill="#10664d"/>
    <path id="Path_195" data-name="Path 195" d="M632.176,223.155a9.994,9.994,0,0,1,0,14.529,12.064,12.064,0,0,1-15,0,10,10,0,0,1,0-14.529,12.064,12.064,0,0,1,15,0Zm-2.271,7.285a5.229,5.229,0,1,0-5.229,5.229A5.181,5.181,0,0,0,629.906,230.44Z" transform="translate(-500.341 -182.544)" fill="#10664d"/>
    <path id="Path_196" data-name="Path 196" d="M758.08,221.11h5.229v2.1a6.829,6.829,0,0,1,5.528-2.7,6.136,6.136,0,0,1,5.872,3.386,6.843,6.843,0,0,1,5.958-3.386,5.892,5.892,0,0,1,5.014,2.271c1.2,1.587,1.286,3.171,1.286,5.229v11.665h-5.229V229.559c0-2.187-.471-3.172-.859-3.643a2.626,2.626,0,0,0-2.144-.944,3.071,3.071,0,0,0-2.872,1.63,7.031,7.031,0,0,0-.727,3.6v9.473H769.91V229.559c0-2.187-.473-3.172-.859-3.643a2.624,2.624,0,0,0-2.144-.944,3.068,3.068,0,0,0-2.871,1.63,7.033,7.033,0,0,0-.729,3.6v9.473H758.08Z" transform="translate(-619.615 -182.519)" fill="#10664d"/>
    <path id="Path_197" data-name="Path 197" d="M966.495,234.512c-.557,1.375-2.658,5.786-9.128,5.786a9.72,9.72,0,0,1-7.115-2.615,9.338,9.338,0,0,1-2.922-7.244,9.882,9.882,0,0,1,2.829-7.285,9.51,9.51,0,0,1,6.986-2.615,8.87,8.87,0,0,1,7.242,3.043,11.106,11.106,0,0,1,2.235,7.287v.428H952.738a5.47,5.47,0,0,0,.9,3.129,4.425,4.425,0,0,0,3.73,1.759,4.787,4.787,0,0,0,4.328-2.444Zm-4.8-6.556a4.453,4.453,0,0,0-8.787,0Z" transform="translate(-776.333 -182.544)" fill="#10664d"/>
    <path id="Path_198" data-name="Path 198" d="M1082.442,197.912v14.1h-5.229v-14.1h-2.063v-4.469h2.063V187.1h5.229v6.343h3.61v4.469Z" transform="translate(-882.181 -154.852)" fill="#10664d"/>
  </g>
</svg>
