<svg id="logo-white" xmlns="http://www.w3.org/2000/svg" width="146.974" height="26.16" viewBox="0 0 146.974 26.16">
  <path id="Path_224" data-name="Path 224" d="M175.028,173.458v4.187h7.949l-.089.441a6.622,6.622,0,0,1-2.548,4.02,7.736,7.736,0,0,1-4.84,1.559,8.543,8.543,0,0,1-3.349-.661,8.228,8.228,0,0,1-2.709-1.821,8.345,8.345,0,0,1-1.78-2.745,9.575,9.575,0,0,1-.02-6.846,8.383,8.383,0,0,1,1.743-2.73,8.237,8.237,0,0,1,5.97-2.482,8.946,8.946,0,0,1,3.942.888,9.834,9.834,0,0,1,3.215,2.531l3.383-3.112a12.517,12.517,0,0,0-4.6-3.478,14.164,14.164,0,0,0-5.94-1.27,13.711,13.711,0,0,0-5.254,1.014,13.214,13.214,0,0,0-4.256,2.772,12.907,12.907,0,0,0-3.848,9.29,12.628,12.628,0,0,0,1.053,5.146,12.943,12.943,0,0,0,7.1,6.923,13.81,13.81,0,0,0,5.286,1.014,12.837,12.837,0,0,0,5.073-1,12.014,12.014,0,0,0,6.682-6.846,13.9,13.9,0,0,0,.96-5.2v-1.6Z" transform="translate(-161.998 -161.938)" fill="#fff"/>
  <path id="Path_225" data-name="Path 225" d="M366.583,221.035h4.581v16.254h-4.581v-2.107a5.83,5.83,0,0,1-4.991,2.626c-4.991,0-8.293-3.9-8.293-8.667,0-4.8,3.264-8.631,8.067-8.631a5.887,5.887,0,0,1,5.216,2.626Zm-8.556,8.106a4.5,4.5,0,1,0,4.5-4.578,4.45,4.45,0,0,0-4.5,4.578Z" transform="translate(-324.509 -211.695)" fill="#fff"/>
  <path id="Path_226" data-name="Path 226" d="M497.589,236.35h8.592v3.9H489.56l9.23-12.341h-7.809V224h15.84Z" transform="translate(-440.262 -214.66)" fill="#fff"/>
  <path id="Path_227" data-name="Path 227" d="M629.92,222.829a8.75,8.75,0,0,1,0,12.72,10.562,10.562,0,0,1-13.133,0,8.753,8.753,0,0,1,0-12.72,10.562,10.562,0,0,1,13.133,0Zm-1.988,6.378a4.578,4.578,0,1,0-4.578,4.578A4.536,4.536,0,0,0,627.932,229.207Z" transform="translate(-546.014 -211.72)" fill="#fff"/>
  <path id="Path_228" data-name="Path 228" d="M758.08,221.035h4.578v1.839a5.979,5.979,0,0,1,4.84-2.364,5.372,5.372,0,0,1,5.141,2.965,5.991,5.991,0,0,1,5.216-2.965,5.158,5.158,0,0,1,4.39,1.988c1.053,1.389,1.126,2.777,1.126,4.578v10.213h-4.578v-8.857a4.917,4.917,0,0,0-.753-3.189,2.3,2.3,0,0,0-1.877-.826,2.689,2.689,0,0,0-2.515,1.427,6.156,6.156,0,0,0-.637,3.151v8.294h-4.575v-8.857a4.927,4.927,0,0,0-.752-3.189,2.3,2.3,0,0,0-1.877-.826,2.686,2.686,0,0,0-2.513,1.427,6.158,6.158,0,0,0-.638,3.151v8.294H758.08Z" transform="translate(-668.37 -211.695)" fill="#fff"/>
  <path id="Path_229" data-name="Path 229" d="M964.109,232.773c-.488,1.2-2.327,5.066-7.992,5.066a8.51,8.51,0,0,1-6.229-2.289,8.175,8.175,0,0,1-2.558-6.342,8.652,8.652,0,0,1,2.477-6.378,8.326,8.326,0,0,1,6.116-2.289,7.766,7.766,0,0,1,6.341,2.664,9.723,9.723,0,0,1,1.956,6.38v.375H952.065a4.789,4.789,0,0,0,.787,2.739,3.874,3.874,0,0,0,3.266,1.54,4.191,4.191,0,0,0,3.79-2.14Zm-4.2-5.74a3.9,3.9,0,0,0-7.694,0Z" transform="translate(-829.138 -211.72)" fill="#fff"/>
  <path id="Path_230" data-name="Path 230" d="M1081.534,196.566v12.341h-4.578V196.566h-1.806v-3.913h1.806V187.1h4.578v5.553h3.161v3.913Z" transform="translate(-937.721 -183.313)" fill="#fff"/>
</svg>
